<?xml version="1.0" encoding="UTF-8"?>
<svg id="Capa_2" data-name="Capa 2" xmlns="http://www.w3.org/2000/svg" viewBox="0 0 111.74 49.17">
  <defs>
    <style>
      .cls-1 {
        fill: #d6d6d6;
      }

      .cls-2 {
        fill: #214497;
      }
    </style>
  </defs>
  <g id="Layer_1" data-name="Layer 1">
    <path class="cls-1" d="M80.09,49.17c-4.87,0-10.01-.24-14.61-1.96-2.82-1.06-5.11-2.58-6.81-4.53-1.63-1.87-2.74-4.14-3.3-6.78-.03-.14-.13-.26-.27-.3-.25-.08-.5-.17-.75-.27-.11-.05-.24-.04-.35.02-.38.2-.77.37-1.16.52-.13.05-.23.17-.26.31l-1.06,6.02c-.03.19-.2.33-.4.33h-18.59c-.25,0-.44-.23-.4-.47l2.53-14.34c.04-.25-.15-.47-.4-.47h-11.9c-.2,0-.36.14-.4.33l-2.58,14.62c-.03.19-.2.33-.4.33H.4c-.25,0-.44-.23-.4-.47L7.36.33c.03-.19.2-.33.4-.33h18.59c.25,0,.44.23.4.47l-2.19,12.41c-.04.25.15.47.4.47h11.9c.2,0,.36-.14.4-.33L39.49.33c.03-.19.2-.33.4-.33h18.59c.25,0,.44.23.4.47l-2.79,15.85c-.04.25.15.47.4.47,0,0,0,0,0,0,.59,0,1.15.08,1.65.25.18.06.38-.02.47-.19,2.45-4.46,6.07-7.78,10.82-9.92,5.83-2.63,12.05-2.99,17.9-2.99,6.8,0,15.26.68,20.32,5.97,2.94,3.08,4.31,7.32,4.07,12.59l-.07,1.63c0,.22-.19.39-.4.39h-20.42c-.23,0-.41-.19-.4-.41l.03-1.74c.02-.83-.1-2.36-1.08-3.36-.77-.79-2.03-1.19-3.75-1.19-5.68,0-8.84,2.89-9.93,9.1-.56,3.16-.28,5.51.81,6.81.87,1.04,2.4,1.56,4.55,1.56,4.02,0,6.44-1.6,8.1-5.33l.45-1.01c.06-.15.21-.24.37-.24h20.58c.28,0,.48.28.38.54l-.84,2.29c-2.28,6.21-5.16,10.2-9.34,12.95-2.38,1.59-5.18,2.73-8.54,3.51-3.44.79-7.4,1.18-12.1,1.18Z"/>
    <path class="cls-2" d="M37.26,25.47h-17l-2.7,15.29H2.43L9.19,2.44h15.13l-2.36,13.36h17l2.36-13.36h15.13l-6.76,38.31h-15.13l2.7-15.29Z"/>
    <path class="cls-2" d="M108.09,31.15c-1.85,5.03-4.29,9.13-8.53,11.91-4.19,2.78-10.27,4.34-19.48,4.34s-26.07-.64-22.57-20.51,20.62-20.51,29.8-20.51,22.98,1.18,22.28,16.36h-17.06c.05-2.73-1.07-6.69-6.93-6.69-6.16,0-10.63,3.05-12.01,10.84-1.37,7.79,1.89,10.84,7.43,10.84,4.77,0,7.98-1.98,10.02-6.59h17.03,0Z"/>
    <path class="cls-1" d="M49.81,35.34c-1.72,0-3.16-.58-4.04-1.62-.76-.9-1.03-2.08-.8-3.42.5-2.81,2.77-4.26,5.05-5.27,0-.04.01-.07.02-.11.57-3.25,2.97-6.54,6.44-6.54,1.37,0,2.11.53,2.48.98.48.57.66,1.34.51,2.18-.39,2.21-2.85,3.55-5.35,4.55.17,1.21.63,2.39,1.31,3.34.4-.49.78-1,1.15-1.49,1.57-2.09,3.05-4.07,5.3-4.07h.02c.88.02,1.62.34,2.08.9.43.53.6,1.24.47,2-.28,1.57-1.67,2.63-2.81,2.63-.49,0-.85-.27-1-.73-.01-.04-.04-.14-.07-.18-.01,0-.04,0-.08,0-.7,0-1.75,1.14-2.77,2.23-.13.15-.27.29-.41.44.63.35,1.29.53,1.93.53.95,0,1.62-.55,1.94-.88h.01s.05-.07.07-.09c.13-.14.37-.39.81-.39.31,0,.58.13.77.35.21.25.29.59.23.94-.12.7-.73,1.52-1.6,2.15-.74.54-2,1.18-3.82,1.18-1.24,0-2.46-.32-3.56-.93-1.38.89-2.79,1.33-4.3,1.33ZM55.7,21.2c-.3.17-.85.77-1.22,1.79.71-.51,1.09-1.01,1.19-1.57h0s0-.03,0-.03c.02-.07.02-.14.03-.19Z"/>
    <path class="cls-2" d="M22.44,44.07h1.26l-.47,2.67c-.08.45-.2,1.22.96,1.22s1.31-.77,1.39-1.22l.47-2.67h1.26l-.53,2.99c-.09.53-.37,1.79-2.75,1.79s-2.21-1.28-2.12-1.79l.53-2.99Z"/>
    <path class="cls-2" d="M31.78,45.83c0-.67-.49-1-1.16-1-1.2,0-1.62.94-1.73,1.57s-.02,1.57,1.18,1.57c.61,0,1.25-.29,1.52-1.02h1.38c-.4,1.36-1.61,1.91-3.09,1.91-1.69,0-2.62-.73-2.32-2.46s1.49-2.46,3.18-2.46c1.12,0,2.5.29,2.4,1.89h-1.36Z"/>
    <path class="cls-2" d="M35.19,44.95h-1.73l.16-.88h4.71l-.16.88h-1.73l-.66,3.75h-1.26l.66-3.75Z"/>
    <path class="cls-2" d="M41.67,45.42c.03-.61-.53-.67-1.04-.67s-.91.24-.96.55c-.05.26.15.39.45.43l1.53.26c.82.14,1.41.45,1.26,1.3s-.87,1.57-2.69,1.57c-1.14,0-2.59-.14-2.33-1.59h1.41c-.09.63.52.75,1.07.75.59,0,1.03-.18,1.1-.57.06-.35-.22-.45-.69-.53l-1.13-.18c-.78-.12-1.53-.37-1.36-1.32.18-1.04,1.1-1.45,2.55-1.45.96,0,2.35.16,2.2,1.47h-1.38v-.02Z"/>
    <path class="cls-2" d="M46.47,44.07h1.26l-.82,4.66h-1.26l.82-4.66Z"/>
    <path class="cls-2" d="M52.54,44.07h1.22l-.82,4.66h-1.38l-1.96-3.24h-.02l-.57,3.24h-1.22l.82-4.66h1.47l1.86,3.24h.02l.57-3.24Z"/>
    <path class="cls-2" d="M58.26,45.83c0-.67-.49-1-1.16-1-1.2,0-1.62.94-1.73,1.57s-.02,1.57,1.18,1.57c.61,0,1.25-.29,1.52-1.02h1.38c-.4,1.36-1.61,1.91-3.09,1.91-1.69,0-2.62-.73-2.32-2.46s1.49-2.46,3.18-2.46c1.12,0,2.5.29,2.4,1.89h-1.36Z"/>
    <path class="cls-2" d="M60.07,47.6h1.26l-.19,1.1h-1.26l.19-1.1Z"/>
    <path class="cls-2" d="M63.68,26.7c-.22,1.23-1.34,1.98-2.04,1.98-.13,0-.21-.03-.26-.19-.09-.27-.25-.72-.89-.72-1.31,0-2.65,1.82-4.38,3.59.92.72,1.99,1.18,3.14,1.18,1.04,0,1.91-.51,2.5-1.12.16-.16.2-.24.34-.24.21,0,.26.21.23.37-.15.83-1.73,2.68-4.65,2.68-1.31,0-2.55-.4-3.59-1.07-1.2.86-2.59,1.47-4.28,1.47-2.54,0-4.54-1.45-4.07-4.12s2.87-3.96,5.01-4.87c0-.16.03-.35.06-.51.52-2.97,2.7-5.89,5.67-5.89,1.69,0,2.45.96,2.23,2.25-.32,1.79-2.41,3.03-5.42,4.18.12,1.9.91,3.78,2.13,5.06,2.26-2.49,3.87-6,6.47-6,1.31.03,1.99.86,1.79,1.98ZM51.31,33.1c.7,0,1.38-.21,2-.56-1.55-1.39-2.53-3.43-2.59-5.68-1.01.72-1.82,1.79-2.03,3.03-.35,1.98.88,3.21,2.62,3.21ZM55.84,20.44c-.91,0-2.07,1.55-2.42,3.53-.04.21-.07.4-.08.62,1.52-.72,2.85-1.61,3.09-2.97.15-.7-.09-1.18-.6-1.18Z"/>
  </g>
</svg>